<?xml version="1.0" encoding="utf-8"?>
<!-- Generator: Adobe Illustrator 16.0.0, SVG Export Plug-In . SVG Version: 6.00 Build 0)  -->
<!DOCTYPE svg PUBLIC "-//W3C//DTD SVG 1.1//EN" "http://www.w3.org/Graphics/SVG/1.1/DTD/svg11.dtd">
<svg version="1.1" id="Layer_1" xmlns="http://www.w3.org/2000/svg" xmlns:xlink="http://www.w3.org/1999/xlink" x="0px" y="0px"
	 width="65px" height="14px" viewBox="0 0 65 14" style="enable-background:new 0 0 65 14;" xml:space="preserve">
<polygon points="56.9,3.7 56.5,4 56.1,3.7 49,12.2 40.9,3.7 40.5,4 40.1,3.7 33,12.2 24.9,3.7 24.5,4 24.1,3.7 17,12.2 8.9,3.7 
	8.5,4 8.1,3.7 0.6,12.7 1.4,13.3 8.5,4.8 16.6,13.3 17,13 17.4,13.3 24.5,4.8 32.6,13.3 33,13 33.4,13.3 40.5,4.8 48.6,13.3 49,13 
	49.4,13.3 56.5,4.8 64.6,13.3 65.4,12.7 "/>
<polygon points="56.9,-0.3 56.5,0 56.1,-0.3 49,8.2 40.9,-0.3 40.5,0 40.1,-0.3 33,8.2 24.9,-0.3 24.5,0 24.1,-0.3 17,8.2 8.9,-0.3 
	8.5,0 8.1,-0.3 0.6,8.7 1.4,9.3 8.5,0.8 16.6,9.3 17,9 17.4,9.3 24.5,0.8 32.6,9.3 33,9 33.4,9.3 40.5,0.8 48.6,9.3 49,9 49.4,9.3 
	56.5,0.8 64.6,9.3 65.4,8.7 "/>
</svg>
